<svg xmlns="http://www.w3.org/2000/svg" viewBox="0 0 907.23 176.89"><defs><style>.cls-1,.cls-2{fill:none;stroke-miterlimit:10;stroke-width:15px;}.cls-1{stroke:#fff;}.cls-2{stroke:#7fe1d9;}.cls-3{fill:#fff;}</style></defs><title>Asset 4</title><g id="Layer_2" data-name="Layer 2"><g id="Layer_1-2" data-name="Layer 1"><path class="cls-1" d="M468.56,78.31h-52a78.73,78.73,0,0,0-78.5,78.5h0a78.73,78.73,0,0,0,78.5,78.5h52" transform="translate(-0.08 -65.93)"/><path class="cls-1" d="M466.56,103.81h-46a52.65,52.65,0,0,0-52.5,52.5h0a52.65,52.65,0,0,0,52.5,52.5h48" transform="translate(-0.08 -65.93)"/><path class="cls-2" d="M468.56,129.81h-46a25.57,25.57,0,0,0-25.5,25.5h0a25.57,25.57,0,0,0,25.5,25.5h46" transform="translate(-0.08 -65.93)"/><path class="cls-2" d="M468.56,103.81h-48a52.65,52.65,0,0,0-52.5,52.5h0" transform="translate(-0.08 -65.93)"/></g><g id="Layer_2-2" data-name="Layer 2"><path class="cls-3" d="M123.34,69.22l23.63,0L77.23,235.78H71.85L.08,69.47l23.89,0,50.09,116.3Z" transform="translate(-0.08 -65.93)"/><path class="cls-3" d="M165.12,69.13l23.73,0,.33,165.76-23.73,0Z" transform="translate(-0.08 -65.93)"/><path class="cls-3" d="M269.06,165.23,251,154.31Q234,144,226.82,134a38.62,38.62,0,0,1-7.23-23.06q0-19.58,13.52-31.83t35.27-12.29A66.79,66.79,0,0,1,306.5,78.37l.05,26.93q-18-17.2-38.6-17.16-11.63,0-19.09,5.42t-7.45,13.78A21.21,21.21,0,0,0,247,121.28q5.52,6.49,17.74,13.62l18.15,10.69q30.36,18.05,30.42,46.05,0,19.93-13.28,32.42t-34.68,12.53a72.89,72.89,0,0,1-44.76-15l-.06-30.14Q239.74,215.75,265,215.7q11.15,0,18.56-6.24A19.45,19.45,0,0,0,291,193.9Q290.92,178.76,269.06,165.23Z" transform="translate(-0.08 -65.93)"/><path class="cls-3" d="M577.58,65.93q38.42-.08,64,24.19t25.67,60.94q.07,36.66-25.67,60.74t-65,24.16q-37.47.08-62.48-23.9t-25.08-60.16q-.07-37.14,25-61.51T577.58,65.93Zm1,22.54q-28.45.06-46.73,17.89t-18.22,45.48q.05,26.82,18.46,44.58t46,17.71q27.74-.06,46.25-18.25t18.46-45.24q-.05-26.34-18.64-44.28T578.57,88.47Z" transform="translate(-0.08 -65.93)"/><path class="cls-3" d="M689.49,68.07l23.73,0,.29,144.16,74.63-.15,0,21.59-98.36.2Z" transform="translate(-0.08 -65.93)"/><path class="cls-3" d="M808.62,67.83l23.73,0,.29,144.16,74.63-.15,0,21.59-98.36.2Z" transform="translate(-0.08 -65.93)"/></g></g></svg>