<svg xmlns="http://www.w3.org/2000/svg" viewBox="0 0 1146.79 176.89"><g id="Layer_2" data-name="Layer 2"><g id="Layer_1-2" data-name="Layer 1"><path d="M468.56,78.31h-52a78.74,78.74,0,0,0-78.5,78.5h0a78.73,78.73,0,0,0,78.5,78.5h52" transform="translate(-0.08 -65.93)" style="fill:none;stroke:#fff;stroke-miterlimit:10;stroke-width:15px"/><path d="M466.56,103.81h-46a52.66,52.66,0,0,0-52.5,52.5h0a52.65,52.65,0,0,0,52.5,52.5h48" transform="translate(-0.08 -65.93)" style="fill:none;stroke:#fff;stroke-miterlimit:10;stroke-width:15px"/><path d="M468.56,129.81h-46a25.58,25.58,0,0,0-25.5,25.5h0a25.57,25.57,0,0,0,25.5,25.5h46" transform="translate(-0.08 -65.93)" style="fill:none;stroke:#7fe1d9;stroke-miterlimit:10;stroke-width:15px"/><path d="M468.56,103.81h-48a52.66,52.66,0,0,0-52.5,52.5h0" transform="translate(-0.08 -65.93)" style="fill:none;stroke:#7fe1d9;stroke-miterlimit:10;stroke-width:15px"/></g><g id="Layer_2-2" data-name="Layer 2"><path d="M123.34,69.22l23.63,0L77.23,235.78H71.85L.08,69.47l23.89,0L74.06,185.71Z" transform="translate(-0.08 -65.93)" style="fill:#fff"/><path d="M165.12,69.13l23.73,0,.33,165.76-23.73,0Z" transform="translate(-0.08 -65.93)" style="fill:#fff"/><path d="M269.06,165.23,251,154.31Q234,144,226.82,134a38.63,38.63,0,0,1-7.23-23.06q0-19.59,13.53-31.83t35.27-12.29A66.77,66.77,0,0,1,306.5,78.37l.06,26.93q-18-17.19-38.6-17.15-11.62,0-19.09,5.41t-7.45,13.79A21.19,21.19,0,0,0,247,121.28q5.52,6.5,17.74,13.62l18.15,10.68q30.36,18.06,30.42,46.06,0,19.94-13.29,32.42t-34.68,12.52a72.85,72.85,0,0,1-44.76-15l-.06-30.14Q239.75,215.76,265,215.7q11.16,0,18.56-6.24A19.45,19.45,0,0,0,291,193.9Q290.92,178.77,269.06,165.23Z" transform="translate(-0.08 -65.93)" style="fill:#fff"/><path d="M577.58,65.93q38.42-.09,64,24.19t25.67,60.94q.08,36.66-25.66,60.74t-65,24.16q-37.47.07-62.48-23.91t-25.08-60.16q-.07-37.14,25-61.51T577.58,65.93Zm1,22.54q-28.44.06-46.73,17.89t-18.22,45.48q.06,26.82,18.47,44.58t46,17.7q27.74-.06,46.25-18.25t18.46-45.24q0-26.34-18.64-44.28T578.57,88.47Z" transform="translate(-0.08 -65.93)" style="fill:#fff"/><path d="M690.06,233.59l-.33-165.52L745.61,68q33.82-.08,53.53,10a76.5,76.5,0,0,1,31.39,29.77,83,83,0,0,1,11.71,42.93,81.73,81.73,0,0,1-52.64,76.52,83.33,83.33,0,0,1-17.2,5q-7.83,1.26-29.89,1.31Zm53.1-144.51-29.66.06.25,123.28,30.37-.06q17.8,0,27.65-2.49a64.92,64.92,0,0,0,16.42-6.2,56.13,56.13,0,0,0,12-9.22q17.52-17.83,17.47-45,0-26.7-18.12-43.51a57.25,57.25,0,0,0-15.27-10.29A63.62,63.62,0,0,0,768,90.34Q760.25,89.05,743.16,89.08Z" transform="translate(-0.08 -65.93)" style="fill:#fff"/><path d="M871.74,67.71l94-.2,0,21.12-70.24.15.1,50.54,67.87-.13,0,21.23-67.87.14.1,51.5,72.5-.15,0,21.12-96.23.19Z" transform="translate(-0.08 -65.93)" style="fill:#fff"/><path d="M1113.23,67.22l28.68-.06-66.15,80.08,71.11,85.67-28.66.05-56.6-68.59-56.84,68.82-29,.06,71.17-86-66.4-79.8,29-.06,52.15,63.2Z" transform="translate(-0.08 -65.93)" style="fill:#fff"/></g></g></svg>