<?xml version="1.0" encoding="utf-8"?>
<!-- Generator: Adobe Illustrator 24.3.0, SVG Export Plug-In . SVG Version: 6.00 Build 0)  -->
<svg version="1.1" id="Layer_1" xmlns="http://www.w3.org/2000/svg" xmlns:xlink="http://www.w3.org/1999/xlink" x="0px" y="0px"
	 viewBox="0 0 1146.8 176.9" style="enable-background:new 0 0 1146.8 176.9;" xml:space="preserve">
<style type="text/css">
	.st0{fill:none;stroke:#FFFFFF;stroke-width:15;stroke-miterlimit:10;}
	.st1{fill:none;stroke:#7FE1D9;stroke-width:15;stroke-miterlimit:10;}
	.st2{enable-background:new    ;}
	.st3{fill:#FFFFFF;}
</style>
<g id="Layer_2_1_">
	<g id="Layer_1-2">
		<path class="st0" d="M276.5,12.4h-52c-43.3,0.1-78.4,35.2-78.5,78.5l0,0c0.1,43.3,35.2,78.4,78.5,78.5h52"/>
		<path class="st0" d="M274.5,37.9h-46c-29,0.1-52.4,23.5-52.5,52.5l0,0c0.1,29,23.5,52.4,52.5,52.5h48"/>
		<path class="st1" d="M276.5,63.9h-46c-14.1,0-25.5,11.4-25.5,25.5l0,0c0,14.1,11.4,25.5,25.5,25.5h46"/>
		<path class="st1" d="M276.5,37.9h-48c-29,0.1-52.4,23.5-52.5,52.5l0,0"/>
	</g>
</g>
<g class="st2">
	<path class="st3" d="M0.6,4.2h22.8l52.3,139.7h0.5l54-139.7h21.4L85.1,174.1H65.6L0.6,4.2z"/>
	<path class="st3" d="M303.9,4.2h106.8v18.7h-86.6v53.3H405v18.7h-80.9v60.5h91v18.7H303.9V4.2z"/>
	<path class="st3" d="M443.1,4.2h65.3c5.6,0,11.5,0.6,17.8,1.9c6.2,1.3,12.4,3.3,18.6,6.1c6.2,2.8,12.1,6.4,17.8,10.9
		c5.7,4.5,10.7,9.9,15,16.2c4.3,6.3,7.8,13.6,10.3,21.8c2.6,8.2,3.8,17.6,3.8,28c0,10.4-1.3,19.7-3.8,28c-2.6,8.2-6,15.5-10.3,21.8
		c-4.3,6.3-9.3,11.7-15,16.2c-5.7,4.5-11.6,8.1-17.8,10.9c-6.2,2.8-12.4,4.8-18.6,6.1c-6.2,1.3-12.2,1.9-17.8,1.9h-65.3V4.2z
		 M463.3,155.4h38.4c9.8,0,18.8-1.3,27.1-3.8c8.3-2.6,15.5-6.5,21.6-11.9c6.1-5.4,10.9-12.2,14.4-20.5c3.5-8.3,5.3-18.3,5.3-30
		c0-11.7-1.8-21.7-5.3-30c-3.5-8.3-8.3-15.2-14.4-20.5c-6.1-5.4-13.3-9.3-21.6-11.9c-8.3-2.6-17.4-3.8-27.1-3.8h-38.4V155.4z"/>
	<path class="st3" d="M624.1,4.2h20.2v169.9h-20.2V4.2z"/>
	<path class="st3" d="M800.5,22.9h-56.2v151.2h-20.2V22.9H668V4.2h132.5V22.9z"/>
	<path class="st3" d="M903.2,178.5c-13,0-24.8-2.2-35.6-6.7c-10.8-4.5-20.2-10.7-28.1-18.6s-14.1-17.4-18.5-28.3
		c-4.4-11-6.6-22.8-6.6-35.6c0-12.8,2.2-24.7,6.6-35.6c4.4-11,10.6-20.4,18.5-28.3s17.3-14.1,28.1-18.6c10.8-4.5,22.7-6.7,35.6-6.7
		s24.8,2.2,35.6,6.7c10.8,4.5,20.2,10.7,28.1,18.6s14.1,17.4,18.5,28.3c4.4,11,6.6,22.8,6.6,35.6c0,12.8-2.2,24.7-6.6,35.6
		c-4.4,11-10.6,20.4-18.5,28.3s-17.3,14.1-28.1,18.6C928.1,176.2,916.2,178.5,903.2,178.5z M903.2,159.7c9.9,0,19-1.8,27.2-5.5
		c8.2-3.7,15.3-8.7,21.2-15.1c5.9-6.4,10.5-13.9,13.8-22.4c3.3-8.6,4.9-17.7,4.9-27.5c0-9.8-1.6-18.9-4.9-27.5
		c-3.3-8.6-7.9-16-13.8-22.4c-5.9-6.4-13-11.4-21.2-15.1c-8.2-3.7-17.3-5.5-27.2-5.5c-9.9,0-19,1.8-27.2,5.5
		c-8.2,3.7-15.3,8.7-21.2,15.1c-5.9,6.4-10.5,13.9-13.8,22.4c-3.3,8.6-4.9,17.7-4.9,27.5c0,9.8,1.6,18.9,4.9,27.5
		c3.3,8.6,7.9,16,13.8,22.4c5.9,6.4,13,11.4,21.2,15.1C884.2,157.9,893.3,159.7,903.2,159.7z"/>
	<path class="st3" d="M1024.4,4.2h43.4c8.2,0,16.3,0.5,24.4,1.4c8.1,1,15.3,3,21.7,6.2c6.4,3.2,11.6,7.9,15.6,14
		c4,6.2,6,14.5,6,25.1c0,12.5-3.8,22.6-11.3,30.2c-7.5,7.7-17.9,12.6-31.2,14.6l48.2,78.2h-24.7l-46.1-76.3h-25.9v76.3h-20.2V4.2z
		 M1044.6,79.1h18c5.6,0,11.4-0.2,17.4-0.5c6-0.3,11.5-1.4,16.6-3.1c5-1.8,9.2-4.5,12.5-8.3c3.3-3.8,4.9-9.2,4.9-16.2
		c0-6.1-1.2-11-3.6-14.6c-2.4-3.7-5.6-6.5-9.5-8.5c-3.9-2-8.3-3.3-13.2-4c-4.9-0.6-9.8-1-14.8-1h-28.3V79.1z"/>
</g>
</svg>
