<?xml version="1.0" encoding="utf-8"?>
<!-- Generator: Adobe Illustrator 24.3.0, SVG Export Plug-In . SVG Version: 6.00 Build 0)  -->
<svg version="1.1" id="Layer_1" xmlns="http://www.w3.org/2000/svg" xmlns:xlink="http://www.w3.org/1999/xlink" x="0px" y="0px"
	 viewBox="0 0 1146.8 176.9" style="enable-background:new 0 0 1146.8 176.9;" xml:space="preserve">
<style type="text/css">
	.st0{fill:none;stroke:#FFFFFF;stroke-width:15;stroke-miterlimit:10;}
	.st1{fill:none;stroke:#7FE1D9;stroke-width:15;stroke-miterlimit:10;}
	.st2{fill:#FFFFFF;}
	.st3{font-family:'Avenir-Roman';}
	.st4{font-size:240px;}
</style>
<g id="Layer_2_1_">
	<g id="Layer_1-2">
		<path class="st0" d="M276.5,12.4h-52c-43.3,0.1-78.4,35.2-78.5,78.5l0,0c0.1,43.3,35.2,78.4,78.5,78.5h52"/>
		<path class="st0" d="M274.5,37.9h-46c-29,0.1-52.4,23.5-52.5,52.5l0,0c0.1,29,23.5,52.4,52.5,52.5h48"/>
		<path class="st1" d="M276.5,63.9h-46c-14.1,0-25.5,11.4-25.5,25.5l0,0c0,14.1,11.4,25.5,25.5,25.5h46"/>
		<path class="st1" d="M276.5,37.9h-48c-29,0.1-52.4,23.5-52.5,52.5l0,0"/>
	</g>
</g>
<text transform="matrix(1 0 0 1 2.7446 174.1304)" class="st2 st3 st4">V  EDITOR</text>
</svg>
